<?xml version="1.0" encoding="UTF-8"?>
<svg xmlns="http://www.w3.org/2000/svg" xmlns:xlink="http://www.w3.org/1999/xlink" width="375pt" height="374.999991pt" viewBox="0 0 375 374.999991" version="1.2">
<defs>
<clipPath id="clip1">
  <path d="M 112.5 112.5 L 262.5 112.5 L 262.5 262.5 L 112.5 262.5 Z M 112.5 112.5 "/>
</clipPath>
</defs>
<g id="surface1">
<g clip-path="url(#clip1)" clip-rule="nonzero">
<path style=" stroke:none;fill-rule:nonzero;fill:rgb(30.589294%,74.508667%,29.019165%);fill-opacity:1;" d="M 187.476562 262.484375 C 146.125 262.484375 112.488281 228.84375 112.488281 187.492188 C 112.488281 146.148438 146.125 112.507812 187.476562 112.507812 C 228.828125 112.507812 262.46875 146.148438 262.46875 187.492188 C 262.46875 228.84375 228.828125 262.484375 187.476562 262.484375 "/>
</g>
<path style=" stroke:none;fill-rule:nonzero;fill:rgb(30.589294%,74.508667%,29.019165%);fill-opacity:1;" d="M 173.628906 177.941406 C 173.628906 177.941406 187.886719 166.425781 193.210938 158.574219 C 195.765625 154.804688 197.722656 142.199219 201.625 142.871094 C 205.523438 143.542969 208.628906 149.4375 207.851562 155.988281 C 207.074219 162.539062 200.730469 171.59375 200.730469 171.59375 L 217.347656 172.3125 C 217.347656 172.3125 225.25 171.921875 225.25 179.429688 C 225.25 181.832031 221.496094 182.570312 221.496094 182.570312 C 221.496094 182.570312 226.964844 181.917969 226.539062 191.210938 C 226.398438 194.265625 221.496094 195.003906 221.496094 195.003906 C 221.496094 195.003906 226.867188 193.714844 226.664062 201.828125 C 226.542969 206.535156 221.496094 206.214844 221.496094 206.214844 C 221.496094 206.214844 226.53125 205.800781 225.273438 213.285156 C 224.859375 215.746094 215.316406 218.640625 209.460938 218.648438 C 197.960938 218.660156 177.039062 214.261719 175.335938 214.261719 C 173.628906 214.261719 148.289062 214.503906 148.289062 214.503906 L 148.289062 177.941406 L 173.628906 177.941406 "/>
<path style=" stroke:none;fill-rule:nonzero;fill:rgb(100%,100%,100%);fill-opacity:1;" d="M 175.335938 212.011719 C 175.96875 212.011719 177.277344 212.230469 180.964844 212.871094 C 188.070312 214.105469 201.292969 216.398438 209.414062 216.398438 L 209.457031 216.398438 C 214.644531 216.390625 221.839844 214.027344 223.089844 212.671875 C 223.351562 210.933594 223.21875 209.585938 222.714844 208.949219 C 222.433594 208.597656 222.027344 208.496094 221.773438 208.46875 C 221.503906 208.472656 221.355469 208.460938 221.351562 208.460938 C 220.1875 208.375 219.292969 207.410156 219.277344 206.246094 C 219.261719 205.078125 220.148438 204.089844 221.3125 203.972656 C 221.3125 203.972656 221.496094 203.949219 221.867188 203.96875 C 224.359375 203.871094 224.398438 202.347656 224.414062 201.769531 C 224.480469 199.082031 223.851562 198.027344 223.472656 197.636719 C 223.175781 197.332031 222.773438 197.179688 222.277344 197.179688 C 222.179688 197.179688 222.101562 197.183594 222.046875 197.191406 C 221.910156 197.21875 221.832031 197.226562 221.832031 197.226562 C 220.648438 197.402344 219.550781 196.613281 219.316406 195.441406 C 219.078125 194.269531 219.8125 193.113281 220.972656 192.816406 C 220.972656 192.816406 221.09375 192.78125 221.308594 192.75 C 222.902344 192.433594 224.261719 191.6875 224.289062 191.109375 C 224.457031 187.453125 223.597656 185.980469 223.070312 185.429688 C 222.542969 184.875 221.960938 184.8125 221.730469 184.8125 C 220.523438 185.011719 219.445312 184.207031 219.214844 183.003906 C 218.984375 181.789062 219.847656 180.605469 221.058594 180.363281 C 221.929688 180.183594 222.878906 179.671875 223.007812 179.398438 C 223 175.191406 219.582031 174.558594 217.546875 174.558594 L 217.445312 174.558594 C 217.386719 174.5625 217.3125 174.5625 217.253906 174.558594 L 200.632812 173.84375 C 199.8125 173.808594 199.078125 173.328125 198.710938 172.589844 C 198.347656 171.855469 198.414062 170.980469 198.886719 170.304688 C 198.945312 170.21875 204.914062 161.628906 205.617188 155.722656 C 206.25 150.390625 203.902344 145.738281 201.410156 145.125 C 200.320312 145.917969 198.800781 150.414062 197.972656 152.867188 C 197.039062 155.628906 196.160156 158.234375 195.070312 159.839844 C 189.625 167.875 175.632812 179.210938 175.042969 179.691406 C 174.640625 180.015625 174.144531 180.191406 173.628906 180.191406 L 150.539062 180.191406 L 150.539062 212.230469 C 156.828125 212.171875 173.921875 212.011719 175.335938 212.011719 Z M 209.414062 220.898438 C 200.90625 220.898438 187.433594 218.558594 180.195312 217.304688 C 178.03125 216.929688 175.789062 216.539062 175.308594 216.511719 C 173.417969 216.511719 148.5625 216.75 148.308594 216.753906 C 147.714844 216.75 147.128906 216.523438 146.703125 216.101562 C 146.277344 215.679688 146.039062 215.105469 146.039062 214.503906 L 146.039062 177.941406 C 146.039062 176.699219 147.046875 175.691406 148.289062 175.691406 L 172.824219 175.691406 C 175.574219 173.417969 186.886719 163.894531 191.347656 157.3125 C 192.089844 156.21875 192.914062 153.78125 193.710938 151.425781 C 195.589844 145.855469 197.367188 140.59375 201.324219 140.59375 C 201.550781 140.59375 201.78125 140.617188 202.007812 140.652344 C 207.28125 141.5625 210.980469 148.707031 210.085938 156.253906 C 209.554688 160.738281 206.753906 166.113281 204.726562 169.515625 L 217.363281 170.058594 C 217.410156 170.058594 217.472656 170.058594 217.546875 170.058594 C 222.5 170.058594 227.5 172.957031 227.5 179.429688 C 227.5 180.628906 227.050781 181.601562 226.382812 182.378906 C 228.164062 184.285156 228.96875 187.292969 228.785156 191.316406 C 228.71875 192.699219 228.117188 193.921875 227.0625 194.90625 C 228.367188 196.503906 228.988281 198.847656 228.914062 201.886719 C 228.855469 204.164062 227.957031 205.757812 226.691406 206.804688 C 227.703125 208.496094 227.96875 210.796875 227.488281 213.660156 C 226.6875 218.421875 214.492188 220.890625 209.464844 220.898438 L 209.414062 220.898438 "/>
<path style=" stroke:none;fill-rule:nonzero;fill:rgb(100%,100%,100%);fill-opacity:1;" d="M 166.410156 208.558594 L 153.660156 208.558594 L 153.660156 183.65625 L 166.410156 183.65625 L 166.410156 208.558594 "/>
</g>
</svg>
