<?xml version="1.0" encoding="UTF-8"?>
<svg xmlns="http://www.w3.org/2000/svg" xmlns:xlink="http://www.w3.org/1999/xlink" width="375pt" height="374.999991pt" viewBox="0 0 375 374.999991" version="1.2">
<defs>
<clipPath id="clip1">
  <path d="M 112.5 112.5 L 262.5 112.5 L 262.5 262.5 L 112.5 262.5 Z M 112.5 112.5 "/>
</clipPath>
</defs>
<g id="surface1">
<g clip-path="url(#clip1)" clip-rule="nonzero">
<path style=" stroke:none;fill-rule:nonzero;fill:rgb(85.099792%,11.759949%,14.898682%);fill-opacity:1;" d="M 262.511719 187.515625 C 262.511719 228.933594 228.933594 262.515625 187.511719 262.515625 C 146.089844 262.515625 112.511719 228.933594 112.511719 187.515625 C 112.511719 146.09375 146.089844 112.515625 187.511719 112.515625 C 228.933594 112.515625 262.511719 146.09375 262.511719 187.515625 "/>
</g>
<path style=" stroke:none;fill-rule:nonzero;fill:rgb(100%,100%,100%);fill-opacity:1;" d="M 169.800781 196.988281 C 175.816406 196.988281 181.140625 198.769531 185.628906 202.28125 C 191.625 206.972656 195.902344 214.65625 198.351562 225.125 C 198.472656 225.652344 198.949219 225.925781 199.355469 225.925781 C 199.527344 225.925781 199.691406 225.878906 199.84375 225.789062 C 202.445312 224.257812 202.996094 219.710938 201.394531 212.984375 C 201.1875 212.304688 199.480469 206.308594 202.28125 202.378906 C 203.761719 200.304688 206.148438 199.210938 209.382812 199.132812 L 209.554688 199.128906 L 209.726562 199.167969 C 209.746094 199.171875 211.746094 199.617188 214.035156 199.617188 C 216.457031 199.617188 219.476562 199.125 220.128906 196.777344 C 220.214844 196.449219 220.910156 193.449219 218.019531 191.777344 L 215.585938 190.371094 L 218.167969 189.257812 C 218.378906 189.160156 220.390625 188.105469 219.992188 184.574219 L 219.980469 184.425781 C 219.980469 184.390625 219.894531 180.546875 217.488281 180.015625 L 213.980469 179.246094 L 216.988281 177.476562 C 217.171875 177.328125 218.550781 176.058594 217.984375 172.53125 C 217.871094 171.777344 217.273438 169.585938 215.996094 169.15625 L 213.453125 168.300781 L 215.480469 166.789062 C 215.613281 166.617188 216.378906 165.5 216.007812 162.777344 C 215.964844 162.433594 215.492188 159.558594 212.179688 159.558594 C 212.042969 159.558594 211.898438 159.566406 211.75 159.574219 L 211.691406 159.578125 L 189.292969 160.113281 C 189.085938 160.152344 188.882812 160.160156 188.6875 160.160156 C 188.527344 160.160156 188.332031 160.15625 188.105469 160.144531 C 187.835938 160.136719 187.519531 160.125 187.15625 160.125 C 184.042969 160.125 181.40625 161.128906 179.105469 163.1875 C 178.613281 163.6875 174.820312 167.316406 168.273438 167.316406 C 167.601562 167.316406 166.917969 167.277344 166.234375 167.199219 C 166.105469 167.183594 165.980469 167.179688 165.851562 167.179688 C 164.050781 167.179688 162.546875 168.65625 162.5 170.472656 L 161.886719 194.902344 C 161.871094 195.574219 162.117188 196.203125 162.582031 196.683594 C 163.148438 197.261719 163.980469 197.535156 164.789062 197.402344 C 166.460938 197.128906 168.148438 196.988281 169.800781 196.988281 Z M 199.355469 228.75 C 197.554688 228.75 196.015625 227.523438 195.605469 225.765625 C 190.585938 204.3125 178.804688 199.8125 169.800781 199.8125 C 168.300781 199.8125 166.769531 199.9375 165.246094 200.1875 C 163.539062 200.46875 161.761719 199.882812 160.5625 198.652344 C 159.5625 197.625 159.03125 196.269531 159.066406 194.828125 L 159.679688 170.402344 C 159.765625 167.070312 162.53125 164.355469 165.851562 164.355469 C 166.082031 164.355469 166.320312 164.367188 166.550781 164.394531 C 167.128906 164.460938 167.710938 164.492188 168.273438 164.492188 C 173.886719 164.492188 176.972656 161.335938 177.101562 161.199219 L 177.183594 161.121094 C 180.035156 158.550781 183.296875 157.304688 187.15625 157.304688 C 187.554688 157.304688 187.910156 157.316406 188.207031 157.324219 C 188.398438 157.332031 188.570312 157.328125 188.695312 157.339844 C 188.699219 157.339844 188.703125 157.339844 188.707031 157.339844 L 188.796875 157.300781 L 211.59375 156.757812 C 211.796875 156.742188 211.992188 156.738281 212.179688 156.738281 C 216.90625 156.738281 218.582031 160.457031 218.808594 162.425781 C 219.117188 164.714844 218.796875 166.296875 218.378906 167.324219 C 220.261719 168.914062 220.71875 171.730469 220.773438 172.109375 C 221.230469 174.957031 220.675781 176.886719 220.011719 178.101562 C 222.5625 179.925781 222.78125 183.695312 222.800781 184.320312 C 223.140625 187.476562 222.074219 189.425781 221.027344 190.550781 C 223.316406 192.84375 223.28125 195.980469 222.847656 197.535156 C 222.226562 199.769531 220.191406 202.4375 214.035156 202.4375 C 211.816406 202.4375 209.882812 202.082031 209.289062 201.960938 C 207.046875 202.042969 205.507812 202.71875 204.578125 204.015625 C 202.835938 206.460938 203.644531 210.742188 204.101562 212.183594 L 204.128906 212.285156 C 206.597656 222.613281 203.941406 226.652344 201.277344 228.222656 C 200.691406 228.566406 200.027344 228.75 199.355469 228.75 "/>
<path style=" stroke:none;fill-rule:nonzero;fill:rgb(100%,100%,100%);fill-opacity:1;" d="M 146.683594 167.089844 C 145.398438 167.089844 144.351562 168.097656 144.304688 169.386719 L 143.476562 192.535156 C 143.414062 194.265625 144.773438 195.722656 146.503906 195.785156 L 151.910156 195.976562 C 153.265625 195.980469 154.359375 194.917969 154.410156 193.566406 L 155.25 170.1875 C 155.304688 168.648438 154.097656 167.355469 152.5625 167.300781 Z M 151.910156 198.800781 C 151.847656 198.800781 151.78125 198.800781 151.71875 198.796875 L 146.402344 198.605469 C 143.117188 198.488281 140.539062 195.71875 140.65625 192.433594 L 141.488281 169.285156 C 141.589844 166.410156 143.96875 164.15625 146.871094 164.273438 L 152.660156 164.480469 C 155.753906 164.589844 158.179688 167.195312 158.070312 170.285156 L 157.230469 193.667969 C 157.125 196.546875 154.789062 198.800781 151.910156 198.800781 "/>
</g>
</svg>
